<svg width="48" height="48" viewBox="0 0 48 48" fill="none" xmlns="http://www.w3.org/2000/svg">
<mask id="mask0_1_13340" style="mask-type:alpha" maskUnits="userSpaceOnUse" x="0" y="0" width="48" height="48">
<path d="M0 0H48V48H0V0Z" fill="white"/>
</mask>
<g mask="url(#mask0_1_13340)">
<path d="M42 34H31.206C29.5982 33.9999 28.014 33.6121 26.588 32.8694C25.1619 32.1268 23.9359 31.0513 23.014 29.734L21.986 28.266C21.0641 26.9487 19.8381 25.8732 18.412 25.1306C16.986 24.3879 15.4018 24.0001 13.794 24H6" stroke="#7B51F1" stroke-width="2" stroke-linecap="round" stroke-linejoin="round"/>
<path d="M42 14H31.21C29.6011 13.9999 28.016 14.388 26.5891 15.1314C25.1623 15.8748 23.9359 16.9514 23.014 18.27L21.994 19.73C21.0723 21.0483 19.8462 22.1248 18.4197 22.8681C16.9933 23.6115 15.4085 23.9998 13.8 24H6" stroke="#7B51F1" stroke-width="2" stroke-linecap="round" stroke-linejoin="round"/>
<path d="M36 20L42 14L36 8" stroke="#7B51F1" stroke-width="2" stroke-linecap="round" stroke-linejoin="round"/>
<path d="M36 40L42 34L36 28" stroke="#7B51F1" stroke-width="2" stroke-linecap="round" stroke-linejoin="round"/>
</g>
</svg>
