<svg width="48" height="48" viewBox="0 0 48 48" fill="none" xmlns="http://www.w3.org/2000/svg">
<mask id="mask0_1_6269" style="mask-type:alpha" maskUnits="userSpaceOnUse" x="0" y="0" width="48" height="48">
<path d="M0 0H48V48H0V0Z" fill="white"/>
</mask>
<g mask="url(#mask0_1_6269)">
<path d="M10 42V10C10 8.93913 10.4214 7.92172 11.1716 7.17157C11.9217 6.42143 12.9391 6 14 6H34C35.0609 6 36.0783 6.42143 36.8284 7.17157C37.5786 7.92172 38 8.93913 38 10V42L32 38L28 42L24 38L20 42L16 38L10 42Z" stroke="#7B51F1" stroke-width="2" stroke-linecap="round" stroke-linejoin="round"/>
<path d="M30 28V24C30 22.9391 29.5786 21.9217 28.8284 21.1716C28.0783 20.4214 27.0609 20 26 20H18M18 20L22 16M18 20L22 24" stroke="#7B51F1" stroke-width="2" stroke-linecap="round" stroke-linejoin="round"/>
</g>
</svg>
