<svg width="24" height="24" viewBox="0 0 24 24" fill="none" xmlns="http://www.w3.org/2000/svg">
<mask id="mask0_wallet" style="mask-type:alpha" maskUnits="userSpaceOnUse" x="0" y="0" width="24" height="24">
<rect width="24" height="24" fill="white"/>
</mask>
<g mask="url(#mask0_wallet)">
<path d="M18 7H5C3.89543 7 3 7.89543 3 9V18C3 19.1046 3.89543 20 5 20H19C20.1046 20 21 19.1046 21 18V9C21 7.89543 20.1046 7 19 7H18Z" stroke="#7B51F1" stroke-width="2" stroke-linecap="round" stroke-linejoin="round"/>
<path d="M16 13.5C16 12.9477 16.4477 12.5 17 12.5H21V15.5H17C16.4477 15.5 16 15.0523 16 14.5V13.5Z" stroke="#7B51F1" stroke-width="2" stroke-linejoin="round"/>
<path d="M7 7V5.5C7 4.94772 7.44772 4.5 8 4.5H16C16.5523 4.5 17 4.94772 17 5.5V7" stroke="#7B51F1" stroke-width="2" stroke-linecap="round" stroke-linejoin="round"/>
</g>
</svg>
