<svg width="48" height="48" viewBox="0 0 48 48" fill="none" xmlns="http://www.w3.org/2000/svg">
<mask id="mask0_1_5564" style="mask-type:alpha" maskUnits="userSpaceOnUse" x="0" y="0" width="48" height="48">
<path d="M0 0H48V48H0V0Z" fill="white"/>
</mask>
<g mask="url(#mask0_1_5564)">
<path d="M40 12V36C40 37.0609 39.5786 38.0783 38.8284 38.8284C38.0783 39.5786 37.0609 40 36 40H16C14.9391 40 13.9217 39.5786 13.1716 38.8284C12.4214 38.0783 12 37.0609 12 36V12C12 10.9391 12.4214 9.92172 13.1716 9.17157C13.9217 8.42143 14.9391 8 16 8H36C37.0609 8 38.0783 8.42143 38.8284 9.17157C39.5786 9.92172 40 10.9391 40 12Z" stroke="#7B51F1" stroke-width="2" stroke-linecap="round" stroke-linejoin="round"/>
<path d="M20 32H32" stroke="#7B51F1" stroke-width="2" stroke-linecap="round" stroke-linejoin="round"/>
<path d="M22 22C22 23.0609 22.4214 24.0783 23.1716 24.8284C23.9217 25.5786 24.9391 26 26 26C27.0609 26 28.0783 25.5786 28.8284 24.8284C29.5786 24.0783 30 23.0609 30 22C30 20.9391 29.5786 19.9217 28.8284 19.1716C28.0783 18.4214 27.0609 18 26 18C24.9391 18 23.9217 18.4214 23.1716 19.1716C22.4214 19.9217 22 20.9391 22 22Z" stroke="#7B51F1" stroke-width="2" stroke-linecap="round" stroke-linejoin="round"/>
<path d="M8 16H14" stroke="#7B51F1" stroke-width="2" stroke-linecap="round" stroke-linejoin="round"/>
<path d="M8 24H14" stroke="#7B51F1" stroke-width="2" stroke-linecap="round" stroke-linejoin="round"/>
<path d="M8 32H14" stroke="#7B51F1" stroke-width="2" stroke-linecap="round" stroke-linejoin="round"/>
</g>
</svg>
